<svg width="15" height="2" viewBox="0 0 12 11" fill="none" xmlns="http://www.w3.org/2000/svg">
<path d="M4.58533 2.2641C5.24118 1.08803 5.56884 0.5 6.05904 0.5C6.54924 0.5 6.8769 1.08803 7.53275 2.2641L7.70253 2.56847C7.88888 2.90286 7.98205 3.07006 8.12699 3.18031C8.27193 3.29057 8.4531 3.33146 8.81545 3.41325L9.14466 3.48779C10.418 3.77611 11.0542 3.92001 11.2059 4.40711C11.357 4.89368 10.9233 5.40148 10.0552 6.41657L9.83053 6.67901C9.58413 6.96733 9.46042 7.11175 9.40503 7.28982C9.34964 7.4684 9.36828 7.66096 9.40555 8.04556L9.43971 8.396C9.57067 9.75065 9.63641 10.4277 9.23991 10.7285C8.8434 11.0292 8.24708 10.7549 7.05549 10.2062L6.74646 10.0643C6.40793 9.90801 6.23866 9.83037 6.05904 9.83037C5.87942 9.83037 5.71015 9.90801 5.37162 10.0643L5.06311 10.2062C3.871 10.7549 3.27468 11.0292 2.87869 10.729C2.48166 10.4277 2.5474 9.75065 2.67837 8.396L2.71253 8.04608C2.7498 7.66096 2.76843 7.4684 2.71253 7.29033C2.65766 7.11175 2.53395 6.96733 2.28755 6.67952L2.0629 6.41657C1.19482 5.402 0.761046 4.8942 0.912195 4.40711C1.06334 3.92001 1.70055 3.77559 2.97394 3.48779L3.30315 3.41325C3.66498 3.33146 3.84563 3.29057 3.99109 3.18031C4.13654 3.07006 4.2292 2.90286 4.41555 2.56847L4.58533 2.2641Z" fill="#59A959"/>
</svg>
